<svg width="546" height="519" viewBox="0 0 546 519" fill="none" xmlns="http://www.w3.org/2000/svg">
<g filter="url(#filter0_d_390_3447)">
<path d="M407.308 239.222V212.412H380.326V239.222V266.032H353.516H326.706H299.896V239.222H273.086V212.412H299.896V185.43V158.62H273.086V131.81H246.104V105H219.294H192.484V131.81H165.674V158.62V185.43H192.484V158.62H219.294V185.43H192.484V212.412H165.674V239.222H192.484V266.032H165.674V292.842H138.864V319.652V346.633H165.674V373.443H192.484V400.253H219.294H246.104H273.086H299.896H326.706H353.516V373.443H380.326V346.633H407.308V319.652H434.118V292.842V266.032V239.222H407.308Z" stroke="white" stroke-width="2.90012" stroke-miterlimit="10"/>
<path d="M165.674 185.43V158.62H138.864V185.43H111.882V212.411H138.864H165.674H192.484V185.43H165.674Z" stroke="white" stroke-width="2.90012" stroke-miterlimit="10"/>
<path d="M407.308 239.222V212.412H380.326V239.222V266.032H353.516H326.706H299.896V239.222H273.086V212.412H299.896V185.43V158.62H273.086V131.81H246.104V105H219.294H192.484V131.81H165.674V158.62V185.43H192.484V158.62H219.294V185.43H192.484V212.412H165.674V239.222H192.484V266.032H165.674V292.842H138.864V319.652V346.633H165.674V373.443H192.484V400.253H219.294H246.104H273.086H299.896H326.706H353.516V373.443H380.326V346.633H407.308V319.652H434.118V292.842V266.032V239.222H407.308Z" stroke="#FFBC1F" stroke-width="14.2425" stroke-linecap="round" stroke-linejoin="round"/>
<path d="M165.674 185.43V158.62H138.864V185.43H111.882V212.411H138.864H165.674H192.484V185.43H165.674Z" stroke="#FFBC1F" stroke-width="14.2425" stroke-linecap="round" stroke-linejoin="round"/>
<path d="M407.308 239.222V212.412H380.326V239.222V266.032H353.516H326.706H299.896V239.222H273.086V212.412H299.896V185.43V158.62H273.086V131.81H246.104V105H219.294H192.484V131.81H165.674V158.62V185.43H192.484V158.62H219.294V185.43H192.484V212.412H165.674V239.222H192.484V266.032H165.674V292.842H138.864V319.652V346.633H165.674V373.443H192.484V400.253H219.294H246.104H273.086H299.896H326.706H353.516V373.443H380.326V346.633H407.308V319.652H434.118V292.842V266.032V239.222H407.308Z" stroke="#FFE576" stroke-width="7.25029" stroke-linecap="round" stroke-linejoin="round"/>
<path d="M165.674 185.43V158.62H138.864V185.43H111.882V212.411H138.864H165.674H192.484V185.43H165.674Z" stroke="#FFE576" stroke-width="7.25029" stroke-linecap="round" stroke-linejoin="round"/>
<path d="M407.308 239.222V212.412H380.326V239.222V266.032H353.516H326.706H299.896V239.222H273.086V212.412H299.896V185.43V158.62H273.086V131.81H246.104V105H219.294H192.484V131.81H165.674V158.62V185.43H192.484V158.62H219.294V185.43H192.484V212.412H165.674V239.222H192.484V266.032H165.674V292.842H138.864V319.652V346.633H165.674V373.443H192.484V400.253H219.294H246.104H273.086H299.896H326.706H353.516V373.443H380.326V346.633H407.308V319.652H434.118V292.842V266.032V239.222H407.308Z" stroke="white" stroke-width="2.90012" stroke-linecap="round" stroke-linejoin="round"/>
<path d="M165.674 185.43V158.62H138.864V185.43H111.882V212.411H138.864H165.674H192.484V185.43H165.674Z" stroke="white" stroke-width="2.90012" stroke-linecap="round" stroke-linejoin="round"/>
</g>
<defs>
<filter id="filter0_d_390_3447" x="0.0347977" y="0.0268316" width="545.93" height="518.948" filterUnits="userSpaceOnUse" color-interpolation-filters="sRGB">
<feFlood flood-opacity="0" result="BackgroundImageFix"/>
<feColorMatrix in="SourceAlpha" type="matrix" values="0 0 0 0 0 0 0 0 0 0 0 0 0 0 0 0 0 0 127 0" result="hardAlpha"/>
<feOffset dy="6.87435"/>
<feGaussianBlur stdDeviation="52.3632"/>
<feColorMatrix type="matrix" values="0 0 0 0 0.979167 0 0 0 0 0.787087 0 0 0 0 0.106076 0 0 0 1 0"/>
<feBlend mode="normal" in2="BackgroundImageFix" result="effect1_dropShadow_390_3447"/>
<feBlend mode="normal" in="SourceGraphic" in2="effect1_dropShadow_390_3447" result="shape"/>
</filter>
</defs>
</svg>
